<?xml version="1.0" encoding="UTF-8" standalone="no"?>
<svg
   xmlns:dc="http://purl.org/dc/elements/1.1/"
   xmlns:cc="http://creativecommons.org/ns#"
   xmlns:rdf="http://www.w3.org/1999/02/22-rdf-syntax-ns#"
   xmlns:svg="http://www.w3.org/2000/svg"
   xmlns="http://www.w3.org/2000/svg"
   xmlns:sodipodi="http://sodipodi.sourceforge.net/DTD/sodipodi-0.dtd"
   xmlns:inkscape="http://www.inkscape.org/namespaces/inkscape"
   sodipodi:docname="GitHub-Mark-small.svg"
   inkscape:version="1.0 (4035a4fb49, 2020-05-01)"
   id="svg246"
   version="1.1"
   viewBox="0 0 11.49306 11.209466"
   height="11.209466mm"
   width="11.49306mm">
  <defs
     id="defs240" />
  <sodipodi:namedview
     inkscape:window-maximized="0"
     inkscape:window-y="0"
     inkscape:window-x="1946"
     inkscape:window-height="1040"
     inkscape:window-width="1274"
     inkscape:lockguides="true"
     showgrid="false"
     inkscape:document-rotation="0"
     inkscape:current-layer="layer1"
     inkscape:document-units="mm"
     inkscape:cy="14.498507"
     inkscape:cx="12.429543"
     inkscape:zoom="11.2"
     inkscape:pageshadow="2"
     inkscape:pageopacity="0.0"
     borderopacity="1.0"
     bordercolor="#666666"
     pagecolor="#ffffff"
     id="base" />
  <metadata
     id="metadata243">
    <rdf:RDF>
      <cc:Work
         rdf:about="">
        <dc:format>image/svg+xml</dc:format>
        <dc:type
           rdf:resource="http://purl.org/dc/dcmitype/StillImage" />
        <dc:title></dc:title>
      </cc:Work>
    </rdf:RDF>
  </metadata>
  <g
     transform="translate(-41.878426,-114.5917)"
     id="layer1"
     inkscape:groupmode="layer"
     inkscape:label="Layer 1">
    <path
       id="path16"
       style="fill:#1b1817;fill-opacity:1;fill-rule:evenodd;stroke:none;stroke-width:0.0352777"
       d="m 47.624471,114.5917 c -3.172884,0 -5.746045,2.5728 -5.746045,5.74675 0,2.53858 1.646414,4.69265 3.929945,5.45288 0.287514,0.0526 0.392289,-0.12488 0.392289,-0.27728 0,-0.13653 -0.0049,-0.49777 -0.0078,-0.9772 -1.598436,0.34714 -1.935692,-0.77046 -1.935692,-0.77046 -0.261408,-0.66393 -0.638175,-0.84067 -0.638175,-0.84067 -0.521758,-0.35631 0.03951,-0.34925 0.03951,-0.34925 0.576792,0.0406 0.880181,0.59231 0.880181,0.59231 0.512586,0.87807 1.345141,0.62442 1.672519,0.47731 0.05221,-0.37112 0.200731,-0.62442 0.364772,-0.768 -1.275997,-0.14534 -2.617611,-0.63817 -2.617611,-2.84021 0,-0.62759 0.224014,-1.14018 0.591609,-1.54199 -0.05927,-0.14535 -0.25647,-0.72955 0.05644,-1.52083 0,0 0.482247,-0.15451 1.580092,0.58879 0.458258,-0.12735 0.95003,-0.19085 1.438627,-0.19332 0.488245,0.002 0.979664,0.066 1.438628,0.19332 1.097139,-0.7433 1.578681,-0.58879 1.578681,-0.58879 0.313619,0.79128 0.116416,1.37548 0.0575,1.52083 0.3683,0.40181 0.59055,0.9144 0.59055,1.54199 0,2.20768 -1.34373,2.69346 -2.623608,2.83563 0.206022,0.17744 0.38982,0.5281 0.38982,1.06433 0,0.76799 -0.0071,1.38782 -0.0071,1.57621 0,0.15381 0.103716,0.33267 0.395111,0.27658 2.28177,-0.76165 3.926772,-2.91395 3.926772,-5.45218 0,-3.17395 -2.573161,-5.74675 -5.747102,-5.74675" />
  </g>
</svg>
